<svg width="40" height="40" viewBox="0 0 40 40" fill="none" xmlns="http://www.w3.org/2000/svg">
<g id="Group 55">
<circle id="Ellipse 1" cx="20" cy="20" r="20" fill="#D9D9D9"/>
<path id="Vector" d="M20.0244 18.1875C16.9978 18.1875 16.3844 13.5613 16.3844 13.5613C16.0244 11.1541 17.1178 8.4375 19.9844 8.4375C22.8644 8.4375 23.9578 11.1541 23.5978 13.5613C23.5978 13.5613 23.0511 18.1875 20.0244 18.1875ZM20.0244 21.6437L23.6511 19.1961C26.8378 19.1961 29.6778 22.3296 29.6778 25.2882V28.6368C29.6778 28.6368 24.8111 30.1565 20.0244 30.1565C15.1578 30.1565 10.3711 28.6368 10.3711 28.6368V25.2882C10.3711 22.2623 12.9578 19.2634 16.3311 19.2634L20.0244 21.6437Z" fill="black"/>
</g>
</svg>
